<?xml version="1.0" encoding="UTF-8" standalone="no"?>
<!-- Created with Serif DrawPlus 11, 0, 3, 23 (Feb 25, 14:12:55) (http://www.serif.com) -->
<svg version="1.1" xmlns="http://www.w3.org/2000/svg" xmlns:xlink="http://www.w3.org/1999/xlink" width="470.424" height="421.396">
	<g id="dp_group001" transform="matrix(1,0,0,1,-143.72,-413.535)">
		<path id="dp_path002" fill="none" fill-rule="evenodd" stroke="black" stroke-width="0.666667" stroke-dasharray="2.4,1.6,2.4,1.6" d="M 501.595,777.659 L 364.192,777.659"/>
		<path id="dp_path019" fill="none" fill-rule="evenodd" stroke="#280abd" stroke-width="1.33333" stroke-dasharray="8,4.8" d="M 144.573,798.995 L 614.143,799.008"/>
		<g id="dp_group003">
			<g id="dp_group004">
				<g id="dp_group005">
					<path id="dp_path006" fill="#cf0606" fill-rule="evenodd" d="M 321.011,766.529 L 321.489,767.773 L 322.447,770.263 L 327.473,764.759 L 320.053,764.04 Z "/>
					<path id="dp_path007" fill="#cf0606" d="M 238.703,799.628 L 321.491,767.775 L 321.011,766.529 L 238.223,798.383 Z "/>
				</g>
			</g>
			<g id="dp_group008">
				<g id="dp_group009">
					<path id="dp_path010" fill="#cf0606" fill-rule="evenodd" d="M 237.796,716.253 L 239.129,716.253 L 241.796,716.253 L 238.463,709.587 L 235.129,716.253 Z "/>
					<path id="dp_path011" fill="#cf0606" d="M 239.129,799.005 L 239.129,716.253 L 237.796,716.253 L 237.796,799.005 Z "/>
				</g>
			</g>
			<g id="dp_group012">
				<g id="dp_group013">
					<path id="dp_path014" fill="#cf0606" fill-rule="evenodd" d="M 332.079,798.341 L 332.079,799.675 L 332.079,802.341 L 338.745,799.008 L 332.079,795.675 Z "/>
					<path id="dp_path015" fill="#cf0606" d="M 238.464,799.675 L 332.079,799.675 L 332.079,798.341 L 238.464,798.341 Z "/>
				</g>
			</g>
		</g>
		<g id="dp_group016">
			<g id="dp_group017">
				<g id="dp_group018">
					<path id="dp_path019" fill="black" fill-rule="evenodd" d="M 528.999,766.744 L 529.477,767.988 L 530.435,770.477 L 535.461,764.973 L 528.041,764.255 Z "/>
					<path id="dp_path020" fill="black" d="M 446.691,799.843 L 529.479,767.989 L 528.999,766.744 L 446.211,798.597 Z "/>
				</g>
			</g>
			<g id="dp_group021">
				<g id="dp_group022">
					<path id="dp_path023" fill="black" fill-rule="evenodd" d="M 445.784,716.468 L 447.117,716.468 L 449.784,716.468 L 446.451,709.801 L 443.117,716.468 Z "/>
					<path id="dp_path024" fill="black" d="M 447.117,799.22 L 447.117,716.468 L 445.784,716.468 L 445.784,799.22 Z "/>
				</g>
			</g>
			<g id="dp_group025">
				<g id="dp_group026">
					<path id="dp_path027" fill="black" fill-rule="evenodd" d="M 540.067,798.556 L 540.067,799.889 L 540.067,802.556 L 546.733,799.223 L 540.067,795.889 Z "/>
					<path id="dp_path028" fill="black" d="M 446.452,799.889 L 540.067,799.889 L 540.067,798.556 L 446.452,798.556 Z "/>
				</g>
			</g>
		</g>
		<g id="dp_group029">
			<g id="dp_group030">
				<path id="dp_path031" fill="black" fill-rule="evenodd" d="M 369.499,696.465 L 371.107,695.276 L 374.321,692.897 L 364.355,687.832 L 366.283,698.844 Z "/>
				<path id="dp_path032" fill="black" d="M 447.391,798.415 L 371.107,695.276 L 369.499,696.465 L 445.783,799.604 Z "/>
			</g>
		</g>
		<text id="dp_text001" transform="matrix(1,1.41586e-015,-1.41586e-015,1,547.323,812.819)" xml:space="preserve" fill="black" font-family="Arial" font-size="15" font-weight="400" font-style="italic" x="0" y="0">x′ </text>
		<text id="dp_text002" transform="matrix(1,1.41586e-015,-1.41586e-015,1,540.153,762.096)" xml:space="preserve" fill="black" font-family="Arial" font-size="15" font-weight="400" font-style="italic" x="0" y="0">y′ </text>
		<text id="dp_text003" transform="matrix(1,1.41586e-015,-1.41586e-015,1,442.783,702.236)" xml:space="preserve" fill="black" font-family="Arial" font-size="15" font-weight="400" font-style="italic" x="0" y="0">z′ </text>
		<text id="dp_text004" transform="matrix(1,1.41586e-015,-1.41586e-015,1,453.183,699.836)" xml:space="preserve" fill="black" font-family="Arial" font-size="15" font-weight="400" x="0" y="0">  </text>
		<text id="dp_text005" transform="matrix(1,1.41586e-015,-1.41586e-015,1,336.753,812.585)" xml:space="preserve" fill="#cf0606" font-family="Arial" font-size="15" font-weight="400" font-style="italic" x="0" y="0">x </text>
		<text id="dp_text006" transform="matrix(1,1.41586e-015,-1.41586e-015,1,330.923,762.196)" xml:space="preserve" fill="#cf0606" font-family="Arial" font-size="15" font-weight="400" font-style="italic" x="0" y="0">y </text>
		<text id="dp_text007" transform="matrix(1,1.41586e-015,-1.41586e-015,1,233.552,703.986)" xml:space="preserve" fill="#cf0606" font-family="Arial" font-size="15" font-weight="400" font-style="italic" x="0" y="0">z </text>
		<text id="dp_text008" transform="matrix(0.997286,1.41201e-015,-1.41586e-015,1,418.223,826.878)" xml:space="preserve" fill="black" font-family="Arial" font-size="26" font-weight="400" x="0" y="0">F′ </text>
		<text id="dp_text009" transform="matrix(0.996499,1.4109e-015,-1.41586e-015,1,502.373,824.478)" xml:space="preserve" fill="black" font-family="Arial" font-size="26" font-weight="400" x="0" y="0">    </text>
		<text id="dp_text010" transform="matrix(1,0,0,1,245.791,831.29)" xml:space="preserve" fill="#280abd" font-family="Arial" font-size="15" font-weight="400" font-style="italic" x="0" y="0">−v </text>
		<text id="dp_text011" transform="matrix(1,1.41543e-015,-1.41586e-015,1,304.998,727.631)" xml:space="preserve" fill="#e30808" font-family="Arial" font-size="15" font-weight="700" x="0" y="0">r </text>
		<text id="dp_text012" transform="matrix(1,1.41586e-015,-1.41586e-015,1,405.112,731.221)" xml:space="preserve" fill="black" font-family="Arial" font-size="15" font-weight="700" x="0" y="0">r′ </text>
		<text id="dp_text013" transform="matrix(1,1.41586e-015,-1.41586e-015,1,401.413,757.1)" xml:space="preserve" fill="black" font-family="Arial" font-size="15" font-weight="400" x="0" y="0">  </text>
		<text id="dp_text014" transform="matrix(1,1.41586e-015,-1.41586e-015,1,401.319,757.1)" xml:space="preserve" fill="#e30808" font-family="Arial" font-size="15" font-weight="400" x="0" y="0">   </text>
		<path id="dp_path507" fill="white" fill-rule="evenodd" stroke="black" stroke-width="0.4" d="M 495.899,689.151 C 508.764,689.639 521.288,687.175 528.983,682.645 C 544.499,673.519 534.291,660.433 509.245,657.335 C 499.505,656.132 489.061,656.712 480.327,658.941 C 455.759,665.215 460.873,682.035 485.441,688.305 L 467.36,730.719 Z "/>
		<path id="dp_path003" fill="white" fill-rule="evenodd" stroke="#cf0606" stroke-width="0.4" d="M 220.149,686.013 L 202.159,685.828 C 197.509,685.817 193.739,682.351 193.739,678.087 L 193.739,635.729 C 193.739,631.465 197.509,628.017 202.159,628.028 L 308.828,628.472 C 313.469,628.483 317.239,631.949 317.239,636.213 L 317.239,678.571 C 317.239,682.835 313.469,686.283 308.828,686.272 L 228.568,686.033 L 224.4,733.719 Z "/>
		<g id="dp_group047">
			<text id="dp_text015" transform="matrix(1,4.66966e-016,-4.66966e-016,1,243.362,675.264)" xml:space="preserve" fill="black" font-family="Arial" font-size="11" font-weight="400" font-style="italic" x="0" y="0">vt' </text>
			<text id="dp_text016" transform="matrix(1,4.66966e-016,-4.66966e-016,1,249.927,675.264)" xml:space="preserve" fill="black" font-family="Arial" font-size="11" font-weight="400" x="0" y="0">  </text>
			<text id="dp_text017" transform="matrix(1,4.66966e-016,-4.66966e-016,1,225.282,675.264)" xml:space="preserve" fill="black" font-family="Arial" font-size="11" font-weight="400" font-style="italic" x="0" y="0">x' </text>
			<path id="dp_path548" fill="black" fill-rule="evenodd" d="M 224.032,678.317 L 224.032,678.653 C 223.063,677.977 222.321,676.985 221.783,675.68 C 221.252,674.372 220.983,672.943 220.983,671.388 C 220.983,669.771 221.263,668.3 221.823,666.972 C 222.392,665.644 223.121,664.696 224.032,664.124 L 224.032,664.451 C 223.572,664.805 223.201,665.288 222.912,665.901 C 222.623,666.515 222.401,667.292 222.263,668.235 C 222.112,669.179 222.041,670.161 222.041,671.185 C 222.041,672.345 222.112,673.392 222.243,674.327 C 222.372,675.263 222.583,676.039 222.852,676.653 C 223.121,677.269 223.512,677.824 224.032,678.317 Z "/>
			<path id="dp_path549" fill="black" fill-rule="evenodd" d="M 255.001,664.451 L 255.001,664.124 C 255.963,664.795 256.712,665.783 257.252,667.089 C 257.783,668.396 258.052,669.827 258.052,671.38 C 258.052,672.997 257.772,674.469 257.212,675.8 C 256.641,677.131 255.912,678.08 255.001,678.653 L 255.001,678.317 C 255.463,677.963 255.832,677.48 256.121,676.868 C 256.421,676.255 256.632,675.477 256.772,674.537 C 256.921,673.597 256.983,672.613 256.983,671.584 C 256.983,670.429 256.921,669.383 256.792,668.447 C 256.663,667.508 256.463,666.731 256.181,666.115 C 255.912,665.5 255.521,664.945 255.001,664.451 Z "/>
			<path id="dp_path568" fill="black" fill-rule="evenodd" d="M 205.701,670.308 L 211.752,670.308 L 211.752,670.767 L 205.701,670.767 Z M 205.701,672.135 L 211.752,672.135 L 211.752,672.595 L 205.701,672.595 Z "/>
			<text id="dp_text018" transform="matrix(1,4.66966e-016,-4.66966e-016,1,199.572,675.264)" xml:space="preserve" fill="black" font-family="Arial" font-size="11" font-weight="400" font-style="italic" x="0" y="0">x </text>
			<text id="dp_text019" transform="matrix(1,4.66966e-016,-4.66966e-016,1,235.282,675.264)" xml:space="preserve" fill="black" font-family="Arial" font-size="11" font-weight="400" x="0" y="0">+ </text>
			<path id="dp_path567" fill="black" fill-rule="evenodd" d="M 219.143,670.369 L 220.092,670.369 C 220.001,670.504 219.583,671.144 218.812,672.288 C 218.492,672.765 218.263,673.129 218.112,673.376 C 218.052,673.477 217.983,673.587 217.903,673.707 L 217.001,675.085 C 216.983,675.325 216.963,675.547 216.932,675.748 C 216.912,675.949 216.881,676.132 216.852,676.297 C 216.761,676.805 216.652,677.197 216.521,677.475 C 216.432,677.669 216.343,677.803 216.243,677.876 C 216.143,677.948 216.041,677.984 215.941,677.984 C 215.812,677.984 215.712,677.932 215.641,677.827 C 215.561,677.723 215.543,677.588 215.572,677.424 C 215.623,677.136 215.743,676.805 215.932,676.428 C 216.112,676.053 216.361,675.632 216.681,675.164 C 216.761,673.248 216.761,672.091 216.663,671.693 C 216.583,671.296 216.392,671.096 216.103,671.096 C 215.932,671.096 215.783,671.151 215.663,671.259 C 215.543,671.365 215.421,671.609 215.292,671.987 L 215.072,671.987 C 215.092,671.875 215.103,671.791 215.112,671.733 C 215.212,671.217 215.383,670.828 215.632,670.565 C 215.823,670.372 216.041,670.275 216.303,670.275 C 216.532,670.275 216.692,670.341 216.812,670.476 C 216.972,670.667 217.072,671.081 217.103,671.721 C 217.152,672.552 217.132,673.455 217.063,674.431 L 217.852,672.765 C 218.212,672.017 218.641,671.219 219.143,670.369 Z "/>
		</g>
		<g id="dp_group053">
			<path id="dp_path522" fill="black" fill-rule="evenodd" fill-opacity="0.403922" stroke="black" stroke-width="0.318667" d="M 241.884,645.857 L 255.695,645.857"/>
			<text id="dp_text020" transform="matrix(1,4.66966e-016,-4.66966e-016,1,249.344,653.714)" xml:space="preserve" fill="black" font-family="Arial" font-size="8" font-weight="400" x="0" y="0">2    </text>
			<text id="dp_text021" transform="matrix(1,4.66966e-016,-4.66966e-016,1,242.494,658.882)" xml:space="preserve" fill="black" font-family="Arial" font-size="11" font-weight="400" font-style="italic" x="0" y="0">c </text>
			<text id="dp_text022" transform="matrix(1,4.66966e-016,-4.66966e-016,1,242.494,641.444)" xml:space="preserve" fill="black" font-family="Arial" font-size="11" font-weight="400" font-style="italic" x="0" y="0">vx' </text>
			<text id="dp_text023" transform="matrix(1,4.66966e-016,-4.66966e-016,1,253.524,641.444)" xml:space="preserve" fill="black" font-family="Arial" font-size="11" font-weight="400" x="0" y="0">  </text>
			<text id="dp_text024" transform="matrix(1,4.66966e-016,-4.66966e-016,1,253.524,641.444)" xml:space="preserve" fill="black" font-family="Arial" font-size="11" font-weight="400" x="0" y="0">   </text>
			<text id="dp_text025" transform="matrix(1,4.66966e-016,-4.66966e-016,1,225.054,648.727)" xml:space="preserve" fill="black" font-family="Arial" font-size="11" font-weight="400" font-style="italic" x="0" y="0">t' </text>
			<text id="dp_text026" transform="matrix(1,4.66966e-016,-4.66966e-016,1,200.954,648.727)" xml:space="preserve" fill="black" font-family="Arial" font-size="11" font-weight="400" font-style="italic" x="0" y="0">t </text>
			<path id="dp_path568" fill="black" fill-rule="evenodd" d="M 206.504,643.771 L 212.555,643.771 L 212.555,644.229 L 206.504,644.229 Z M 206.504,645.597 L 212.555,645.597 L 212.555,646.057 L 206.504,646.057 Z "/>
			<path id="dp_path032" fill="black" fill-rule="evenodd" d="M 221.695,648.843 L 221.695,651.909 C 221.695,653.089 221.844,654.239 222.164,655.356 C 222.475,656.472 222.945,657.453 223.575,658.299 C 224.115,659.027 224.825,659.692 225.684,660.293 L 225.564,660.408 C 224.665,660.031 223.865,659.412 223.164,658.549 C 222.465,657.688 221.955,656.643 221.625,655.412 C 221.305,654.184 221.145,652.979 221.145,651.797 L 221.145,648.843 L 221.145,642.828 L 221.145,639.879 L 221.145,638.617 L 221.204,638.617 C 221.265,637.899 221.385,637.189 221.564,636.488 C 221.804,635.535 222.145,634.696 222.575,633.976 C 223.015,633.253 223.525,632.647 224.105,632.155 C 224.525,631.791 225.015,631.495 225.564,631.263 L 225.684,631.377 C 224.635,632.101 223.804,632.953 223.185,633.928 C 222.695,634.711 222.324,635.647 222.065,636.739 C 221.815,637.829 221.695,638.839 221.695,639.765 L 221.695,642.828 Z "/>
			<path id="dp_path032" fill="black" fill-rule="evenodd" d="M 260.136,648.843 L 260.136,651.909 C 260.136,653.089 259.987,654.239 259.667,655.356 C 259.356,656.472 258.885,657.453 258.256,658.299 C 257.716,659.027 257.005,659.692 256.147,660.293 L 256.267,660.408 C 257.165,660.031 257.965,659.412 258.667,658.549 C 259.365,657.688 259.876,656.643 260.205,655.412 C 260.525,654.184 260.685,652.979 260.685,651.797 L 260.685,648.843 L 260.685,642.828 L 260.685,639.879 L 260.685,638.617 L 260.627,638.617 C 260.565,637.899 260.445,637.189 260.267,636.488 C 260.027,635.535 259.685,634.696 259.256,633.976 C 258.816,633.253 258.305,632.647 257.725,632.155 C 257.305,631.791 256.816,631.495 256.267,631.263 L 256.147,631.377 C 257.196,632.101 258.027,632.953 258.645,633.928 C 259.136,634.711 259.507,635.647 259.765,636.739 C 260.016,637.829 260.136,638.839 260.136,639.765 L 260.136,642.828 Z "/>
			<text id="dp_text027" transform="matrix(1,4.66966e-016,-4.66966e-016,1,233.054,648.727)" xml:space="preserve" fill="black" font-family="Arial" font-size="11" font-weight="400" x="0" y="0">+ </text>
			<path id="dp_path567" fill="black" fill-rule="evenodd" d="M 219.461,643.812 L 220.411,643.812 C 220.32,643.947 219.901,644.587 219.131,645.731 C 218.811,646.208 218.581,646.572 218.431,646.819 C 218.371,646.92 218.301,647.029 218.221,647.149 L 217.32,648.528 C 217.301,648.768 217.281,648.989 217.251,649.191 C 217.231,649.392 217.2,649.575 217.171,649.74 C 217.08,650.248 216.971,650.64 216.84,650.917 C 216.751,651.112 216.661,651.245 216.561,651.319 C 216.461,651.391 216.36,651.427 216.26,651.427 C 216.131,651.427 216.031,651.375 215.96,651.269 C 215.88,651.165 215.861,651.031 215.891,650.867 C 215.941,650.579 216.061,650.248 216.251,649.871 C 216.431,649.496 216.68,649.075 217,648.607 C 217.08,646.691 217.08,645.533 216.981,645.136 C 216.901,644.739 216.711,644.539 216.421,644.539 C 216.251,644.539 216.101,644.593 215.981,644.701 C 215.861,644.808 215.74,645.052 215.611,645.429 L 215.391,645.429 C 215.411,645.317 215.421,645.233 215.431,645.176 C 215.531,644.66 215.701,644.271 215.951,644.008 C 216.141,643.815 216.36,643.717 216.621,643.717 C 216.851,643.717 217.011,643.784 217.131,643.919 C 217.291,644.109 217.391,644.524 217.421,645.164 C 217.471,645.995 217.451,646.897 217.381,647.873 L 218.171,646.208 C 218.531,645.46 218.96,644.661 219.461,643.812 Z "/>
		</g>
		<text id="dp_text028" transform="matrix(1,4.66966e-016,-4.66966e-016,1,280.569,647.215)" xml:space="preserve" fill="black" font-family="Arial" font-size="11" font-weight="400" font-style="italic" x="0" y="0">y = y' </text>
		<text id="dp_text029" transform="matrix(1,4.66966e-016,-4.66966e-016,1,280.569,675.417)" xml:space="preserve" fill="black" font-family="Arial" font-size="11" font-weight="400" font-style="italic" x="0" y="0">z = z' </text>
		<path id="dp_path287" fill="#280abd" fill-rule="evenodd" stroke="none" stroke-width="0.481333" d="M 264.387,827.775 L 276.392,822.841 L 276.405,826.28 L 333.104,826.052 L 333.113,828.943 L 276.417,829.171 L 276.431,832.609 Z "/>
		<g id="dp_group064">
			<g id="dp_group065">
				<path id="dp_path066" fill="#cf0606" fill-rule="evenodd" d="M 356.207,693.712 L 357.533,695.209 L 360.185,698.203 L 364.355,687.829 L 353.555,690.719 Z "/>
				<path id="dp_path067" fill="#cf0606" d="M 239.799,799.495 L 357.533,695.209 L 356.208,693.713 L 238.473,797.999 Z "/>
			</g>
		</g>
		<text id="dp_text030" transform="matrix(0.996714,1.41164e-015,-1.41586e-015,1,212.301,824.425)" xml:space="preserve" fill="black" font-family="Arial" font-size="26" font-weight="400" x="0" y="0">F </text>
		<path id="dp_path069" fill="none" fill-rule="evenodd" stroke="#cf0606" stroke-width="0.666667" stroke-dasharray="2.4,1.6,2.4,1.6" d="M 307.823,799.419 L 364.189,777.661"/>
		<path id="dp_path070" fill="none" fill-rule="evenodd" stroke="#cf0606" stroke-width="0.666667" stroke-dasharray="2.4,1.6,2.4,1.6" d="M 293.911,777.659 L 364.192,777.659"/>
		<path id="dp_path071" fill="none" fill-rule="evenodd" stroke="#cf0606" stroke-width="0.666667" stroke-dasharray="2.4,1.6,2.4,1.6" d="M 364.191,777.66 L 364.191,688.241"/>
		<g id="dp_group072">
			<path id="dp_path073" fill="#fefeff" fill-rule="evenodd" stroke="black" stroke-width="0.933333" d="M 497.084,719.577 C 506.509,719.577 514.149,727.217 514.149,736.643 C 514.149,746.068 506.509,753.708 497.084,753.708 C 487.659,753.708 480.019,746.068 480.019,736.643 C 480.019,727.217 487.659,719.577 497.084,719.577 Z "/>
			<g id="dp_group074">
				<g id="dp_group075">
					<path id="dp_path076" fill="black" fill-rule="evenodd" d="M 504.58,741.617 L 504.025,742.367 L 502.915,743.867 L 508.053,744.769 L 505.692,740.116 Z "/>
					<path id="dp_path077" fill="black" fill-rule="evenodd" d="M 496.617,727.699 L 497.551,727.699 L 499.417,727.699 L 497.084,723.032 L 494.751,727.699 Z "/>
					<path id="dp_path078" fill="black" d="M 504.58,741.617 L 497.549,736.409 L 497.551,727.699 L 496.617,727.699 L 496.619,736.879 L 504.025,742.367 Z "/>
				</g>
			</g>
		</g>
		<text id="dp_text031" transform="matrix(1,9.48894e-016,-9.48894e-016,1,512.762,755.391)" xml:space="preserve" fill="black" font-family="Arial" font-size="15" font-weight="400" font-style="italic" x="0" y="0">t' </text>
		<g id="dp_group080">
			<path id="dp_path081" fill="#fefeff" fill-rule="evenodd" stroke="#cf0606" stroke-width="0.933333" d="M 181.189,754.663 C 190.615,754.663 198.255,762.303 198.255,771.728 C 198.255,781.153 190.615,788.793 181.189,788.793 C 171.764,788.793 164.124,781.153 164.124,771.728 C 164.124,762.303 171.764,754.663 181.189,754.663 Z "/>
			<g id="dp_group082">
				<g id="dp_group083">
					<path id="dp_path084" fill="#cf0606" fill-rule="evenodd" d="M 187.22,766.192 L 187.811,766.915 L 188.993,768.359 L 191.128,763.599 L 186.039,764.747 Z "/>
					<path id="dp_path085" fill="#cf0606" fill-rule="evenodd" d="M 180.721,762.784 L 181.655,762.784 L 183.521,762.784 L 181.188,758.117 L 178.855,762.784 Z "/>
					<path id="dp_path086" fill="#cf0606" d="M 187.22,766.192 L 181.655,770.745 L 181.655,762.784 L 180.721,762.784 L 180.721,772.713 L 187.812,766.915 Z "/>
				</g>
			</g>
		</g>
		<text id="dp_text032" transform="matrix(1,9.48894e-016,-9.48894e-016,1,197.337,758.844)" xml:space="preserve" fill="#cf0606" font-family="Arial" font-size="15" font-weight="400" font-style="italic" x="0" y="0">t </text>
		<path id="dp_path088" fill="none" fill-rule="evenodd" stroke="#cf0606" stroke-width="0.666667" stroke-dasharray="2.4,1.6,2.4,1.6" d="M 500.593,568.472 L 363.191,568.472"/>
		<path id="dp_path019" fill="none" fill-rule="evenodd" stroke="#280abd" stroke-width="1.33333" stroke-dasharray="8,4.8" d="M 143.72,590.328 L 613.287,590.341"/>
		<g id="dp_group089">
			<g id="dp_group090">
				<g id="dp_group091">
					<path id="dp_path092" fill="black" fill-rule="evenodd" d="M 319.843,557.753 L 320.321,558.997 L 321.279,561.487 L 326.305,555.983 L 318.885,555.264 Z "/>
					<path id="dp_path093" fill="black" d="M 237.535,590.852 L 320.323,558.999 L 319.843,557.753 L 237.055,589.607 Z "/>
				</g>
			</g>
			<g id="dp_group094">
				<g id="dp_group095">
					<path id="dp_path096" fill="black" fill-rule="evenodd" d="M 236.628,507.477 L 237.961,507.477 L 240.628,507.477 L 237.295,500.811 L 233.961,507.477 Z "/>
					<path id="dp_path097" fill="black" d="M 237.961,590.229 L 237.961,507.477 L 236.628,507.477 L 236.628,590.229 Z "/>
				</g>
			</g>
			<g id="dp_group098">
				<g id="dp_group099">
					<path id="dp_path100" fill="black" fill-rule="evenodd" d="M 330.911,589.565 L 330.911,590.899 L 330.911,593.565 L 337.577,590.232 L 330.911,586.899 Z "/>
					<path id="dp_path101" fill="black" d="M 237.296,590.899 L 330.911,590.899 L 330.911,589.565 L 237.296,589.565 Z "/>
				</g>
			</g>
		</g>
		<g id="dp_group102">
			<g id="dp_group103">
				<g id="dp_group104">
					<path id="dp_path105" fill="#cf0606" fill-rule="evenodd" d="M 527.831,557.968 L 528.309,559.212 L 529.267,561.701 L 534.293,556.197 L 526.873,555.479 Z "/>
					<path id="dp_path106" fill="#cf0606" d="M 445.523,591.067 L 528.311,559.213 L 527.831,557.968 L 445.043,589.821 Z "/>
				</g>
			</g>
			<g id="dp_group107">
				<g id="dp_group108">
					<path id="dp_path109" fill="#cf0606" fill-rule="evenodd" d="M 444.616,507.692 L 445.949,507.692 L 448.616,507.692 L 445.283,501.025 L 441.949,507.692 Z "/>
					<path id="dp_path110" fill="#cf0606" d="M 445.949,590.444 L 445.949,507.692 L 444.616,507.692 L 444.616,590.444 Z "/>
				</g>
			</g>
			<g id="dp_group111">
				<g id="dp_group112">
					<path id="dp_path113" fill="#cf0606" fill-rule="evenodd" d="M 538.899,589.78 L 538.899,591.113 L 538.899,593.78 L 545.565,590.447 L 538.899,587.113 Z "/>
					<path id="dp_path114" fill="#cf0606" d="M 445.284,591.113 L 538.899,591.113 L 538.899,589.78 L 445.284,589.78 Z "/>
				</g>
			</g>
		</g>
		<path id="dp_path507" fill="white" fill-rule="evenodd" stroke="black" stroke-width="0.4" d="M 196.788,519.388 C 186.495,519.805 176.475,517.699 170.319,513.825 C 157.911,506.02 166.075,494.829 186.111,492.18 C 193.901,491.151 202.255,491.647 209.244,493.553 C 228.899,498.919 228.899,512.177 209.244,517.54 L 215.617,528.119 Z "/>
		<text id="dp_text033" transform="matrix(1,1.41586e-015,-1.41586e-015,1,331.321,553.676)" xml:space="preserve" fill="black" font-family="Arial" font-size="15" font-weight="400" font-style="italic" x="0" y="0">y </text>
		<text id="dp_text034" transform="matrix(1,1.41586e-015,-1.41586e-015,1,233.954,491.416)" xml:space="preserve" fill="black" font-family="Arial" font-size="15" font-weight="400" font-style="italic" x="0" y="0">z </text>
		<text id="dp_text035" transform="matrix(1,1.41586e-015,-1.41586e-015,1,336.309,604.241)" xml:space="preserve" fill="black" font-family="Arial" font-size="15" font-weight="400" font-style="italic" x="0" y="0">x </text>
		<text id="dp_text036" transform="matrix(0.996714,1.41164e-015,-1.41586e-015,1,213.035,619.458)" xml:space="preserve" fill="black" font-family="Arial" font-size="26" font-weight="400" x="0" y="0">F </text>
		<text id="dp_text037" transform="matrix(1,1.41543e-015,-1.41586e-015,1,314.02,514.249)" xml:space="preserve" fill="black" font-family="Arial" font-size="15" font-weight="700" x="0" y="0">r   </text>
		<path id="dp_path003" fill="white" fill-rule="evenodd" stroke="#cf0606" stroke-width="0.4" d="M 462.984,471.72 L 408.993,471.535 C 404.344,471.524 400.573,468.057 400.573,463.793 L 400.573,421.436 C 400.573,417.172 404.344,413.724 408.993,413.735 L 523.663,414.179 C 528.304,414.189 532.073,417.656 532.073,421.92 L 532.073,464.277 C 532.073,468.541 528.304,471.989 523.663,471.979 L 471.403,471.74 L 461.6,522.119 Z "/>
		<text id="dp_text038" transform="matrix(1,1.41586e-015,-1.41586e-015,1,539.493,553.429)" xml:space="preserve" fill="#cf0606" font-family="Arial" font-size="15" font-weight="400" font-style="italic" x="0" y="0">y′ </text>
		<text id="dp_text039" transform="matrix(1,1.41586e-015,-1.41586e-015,1,442.123,491.169)" xml:space="preserve" fill="#cf0606" font-family="Arial" font-size="15" font-weight="400" font-style="italic" x="0" y="0">z′ </text>
		<text id="dp_text040" transform="matrix(1,1.41586e-015,-1.41586e-015,1,452.523,491.169)" xml:space="preserve" fill="#280abd" font-family="Arial" font-size="15" font-weight="400" x="0" y="0">  </text>
		<text id="dp_text041" transform="matrix(1,1.41586e-015,-1.41586e-015,1,452.523,491.169)" xml:space="preserve" fill="#280abd" font-family="Arial" font-size="15" font-weight="400" x="0" y="0">   </text>
		<path id="dp_path287" fill="#280abd" fill-rule="evenodd" stroke="none" stroke-width="0.481333" d="M 526.143,619.108 L 514.133,614.175 L 514.123,617.613 L 457.433,617.385 L 457.423,620.276 L 514.113,620.504 L 514.093,623.943 Z "/>
		<text id="dp_text042" transform="matrix(0.997286,1.41201e-015,-1.41586e-015,1,413.553,620.611)" xml:space="preserve" fill="black" font-family="Arial" font-size="26" font-weight="400" x="0" y="0">F′ </text>
		<text id="dp_text043" transform="matrix(0.996499,1.4109e-015,-1.41586e-015,1,434.284,620.611)" xml:space="preserve" fill="black" font-family="Arial" font-size="26" font-weight="400" x="0" y="0">  </text>
		<text id="dp_text044" transform="matrix(0.996499,1.4109e-015,-1.41586e-015,1,435.604,620.611)" xml:space="preserve" fill="#1e02ab" font-family="Arial" font-size="26" font-weight="400" x="0" y="0">   </text>
		<text id="dp_text045" transform="matrix(0.996499,1.4109e-015,-1.41586e-015,1,501.703,615.811)" xml:space="preserve" fill="black" font-family="Arial" font-size="26" font-weight="400" x="0" y="0">    </text>
		<text id="dp_text046" transform="matrix(1,1.41543e-015,-1.41543e-015,1,537.103,624.383)" xml:space="preserve" fill="#280abd" font-family="Arial" font-size="15" font-weight="400" x="0" y="0">+</text>
		<text id="dp_text047" transform="matrix(1,1.41543e-015,-1.41543e-015,1,537.103,624.383)" xml:space="preserve" fill="#280abd" font-family="Arial" font-size="15" font-weight="400" font-style="italic" x="8.76" y="0">v </text>
		<text id="dp_text048" transform="matrix(1,1.41586e-015,-1.41586e-015,1,404.305,525.111)" xml:space="preserve" fill="#cf0606" font-family="Arial" font-size="15" font-weight="700" x="0" y="0">r′ </text>
		<text id="dp_text049" transform="matrix(1,1.41586e-015,-1.41586e-015,1,491.22,519.114)" xml:space="preserve" fill="#e30808" font-family="Arial" font-size="15" font-weight="400" x="0" y="0">  </text>
		<text id="dp_text050" transform="matrix(1,1.41586e-015,-1.41586e-015,1,491.126,519.114)" xml:space="preserve" fill="#e30808" font-family="Arial" font-size="15" font-weight="400" x="0" y="0">   </text>
		<text id="dp_text051" transform="matrix(1,4.66966e-016,-4.66966e-016,1,169.402,508.859)" xml:space="preserve" fill="black" font-family="Arial" font-size="12" font-weight="400" x="0" y="0">(</text>
		<text id="dp_text052" transform="matrix(1,4.66966e-016,-4.66966e-016,1,169.402,508.859)" xml:space="preserve" fill="black" font-family="Arial" font-size="12" font-weight="400" font-style="italic" x="4" y="0">t, x, y, z</text>
		<text id="dp_text053" transform="matrix(1,4.66966e-016,-4.66966e-016,1,169.402,508.859)" xml:space="preserve" fill="black" font-family="Arial" font-size="12" font-weight="400" x="45.344" y="0">)</text>
		<text id="dp_text054" transform="matrix(1,4.66966e-016,-4.66966e-016,1,169.402,508.859)" xml:space="preserve" fill="black" font-family="Arial" font-size="12" font-weight="400" font-style="italic" x="49.344" y="0"> </text>
		<g id="dp_group137">
			<text id="dp_text055" transform="matrix(1,4.66966e-016,-4.66966e-016,1,412.686,460.971)" xml:space="preserve" fill="black" font-family="Arial" font-size="11" font-weight="400" x="0" y="0">′ </text>
			<text id="dp_text056" transform="matrix(1,4.66966e-016,-4.66966e-016,1,460.762,460.971)" xml:space="preserve" fill="black" font-family="Arial" font-size="11" font-weight="400" x="0" y="0">  </text>
			<text id="dp_text057" transform="matrix(1,4.66966e-016,-4.66966e-016,1,460.762,460.971)" xml:space="preserve" fill="black" font-family="Arial" font-size="11" font-weight="400" x="0" y="0">   </text>
			<text id="dp_text058" transform="matrix(1,4.66966e-016,-4.66966e-016,1,435.116,460.971)" xml:space="preserve" fill="black" font-family="Arial" font-size="11" font-weight="400" font-style="italic" x="0" y="0">x </text>
			<path id="dp_path548" fill="black" fill-rule="evenodd" d="M 434.867,464.024 L 434.867,464.36 C 433.897,463.684 433.156,462.692 432.617,461.387 C 432.087,460.079 431.817,458.649 431.817,457.095 C 431.817,455.477 432.097,454.007 432.657,452.679 C 433.227,451.351 433.956,450.403 434.867,449.831 L 434.867,450.157 C 434.407,450.512 434.036,450.995 433.747,451.608 C 433.457,452.221 433.236,452.999 433.097,453.941 C 432.947,454.885 432.876,455.868 432.876,456.892 C 432.876,458.052 432.947,459.099 433.077,460.033 C 433.207,460.969 433.417,461.745 433.687,462.36 C 433.956,462.976 434.347,463.531 434.867,464.024 Z "/>
			<path id="dp_path549" fill="black" fill-rule="evenodd" d="M 462.836,450.157 L 462.836,449.831 C 463.797,450.501 464.547,451.489 465.087,452.796 C 465.617,454.103 465.887,455.533 465.887,457.087 C 465.887,458.704 465.607,460.176 465.047,461.507 C 464.476,462.837 463.747,463.787 462.836,464.36 L 462.836,464.024 C 463.297,463.669 463.667,463.187 463.956,462.575 C 464.256,461.961 464.467,461.184 464.607,460.244 C 464.756,459.304 464.817,458.32 464.817,457.291 C 464.817,456.136 464.756,455.089 464.627,454.153 C 464.497,453.215 464.297,452.437 464.016,451.821 C 463.747,451.207 463.356,450.652 462.836,450.157 Z "/>
			<path id="dp_path566" fill="black" fill-rule="evenodd" d="M 444.227,457.736 L 450.107,457.736 L 450.107,458.283 L 444.227,458.283 Z "/>
			<path id="dp_path568" fill="black" fill-rule="evenodd" d="M 416.536,456.015 L 422.587,456.015 L 422.587,456.473 L 416.536,456.473 Z M 416.536,457.841 L 422.587,457.841 L 422.587,458.301 L 416.536,458.301 Z "/>
			<text id="dp_text059" transform="matrix(1,4.66966e-016,-4.66966e-016,1,406.406,460.971)" xml:space="preserve" fill="black" font-family="Arial" font-size="11" font-weight="400" font-style="italic" x="0" y="0">x </text>
			<text id="dp_text060" transform="matrix(1,4.66966e-016,-4.66966e-016,1,452.116,460.971)" xml:space="preserve" fill="black" font-family="Arial" font-size="11" font-weight="400" font-style="italic" x="0" y="0">vt </text>
			<path id="dp_path567" fill="black" fill-rule="evenodd" d="M 430.127,455.733 L 431.076,455.733 C 430.985,455.868 430.567,456.508 429.796,457.652 C 429.476,458.129 429.247,458.493 429.096,458.74 C 429.036,458.841 428.967,458.951 428.887,459.071 L 427.985,460.449 C 427.967,460.689 427.947,460.911 427.916,461.112 C 427.896,461.313 427.865,461.496 427.836,461.661 C 427.745,462.169 427.636,462.561 427.505,462.839 C 427.416,463.033 427.327,463.167 427.227,463.24 C 427.127,463.312 427.025,463.348 426.925,463.348 C 426.796,463.348 426.696,463.296 426.625,463.191 C 426.545,463.087 426.527,462.952 426.556,462.788 C 426.607,462.5 426.727,462.169 426.916,461.792 C 427.096,461.417 427.345,460.996 427.665,460.528 C 427.745,458.612 427.745,457.455 427.647,457.057 C 427.567,456.66 427.376,456.46 427.087,456.46 C 426.916,456.46 426.767,456.515 426.647,456.623 C 426.527,456.729 426.405,456.973 426.276,457.351 L 426.056,457.351 C 426.076,457.239 426.087,457.155 426.096,457.097 C 426.196,456.581 426.367,456.192 426.616,455.929 C 426.807,455.736 427.025,455.639 427.287,455.639 C 427.516,455.639 427.676,455.705 427.796,455.84 C 427.956,456.031 428.056,456.445 428.087,457.085 C 428.136,457.916 428.116,458.819 428.047,459.795 L 428.836,458.129 C 429.196,457.381 429.625,456.583 430.127,455.733 Z "/>
		</g>
		<g id="dp_group144">
			<path id="dp_path522" fill="black" fill-rule="evenodd" fill-opacity="0.403922" stroke="black" stroke-width="0.318667" d="M 452.719,431.564 L 466.529,431.564"/>
			<text id="dp_text061" transform="matrix(1,4.66966e-016,-4.66966e-016,1,460.179,439.42)" xml:space="preserve" fill="black" font-family="Arial" font-size="8" font-weight="400" x="0" y="0">2    </text>
			<text id="dp_text062" transform="matrix(1,4.66966e-016,-4.66966e-016,1,411.919,434.433)" xml:space="preserve" fill="black" font-family="Arial" font-size="11" font-weight="400" x="0" y="0">′ </text>
			<text id="dp_text063" transform="matrix(1,4.66966e-016,-4.66966e-016,1,453.329,444.588)" xml:space="preserve" fill="black" font-family="Arial" font-size="11" font-weight="400" font-style="italic" x="0" y="0">c </text>
			<text id="dp_text064" transform="matrix(1,4.66966e-016,-4.66966e-016,1,453.329,427.15)" xml:space="preserve" fill="black" font-family="Arial" font-size="11" font-weight="400" font-style="italic" x="0" y="0">vx </text>
			<text id="dp_text065" transform="matrix(1,4.66966e-016,-4.66966e-016,1,464.358,427.15)" xml:space="preserve" fill="black" font-family="Arial" font-size="11" font-weight="400" x="0" y="0">  </text>
			<text id="dp_text066" transform="matrix(1,4.66966e-016,-4.66966e-016,1,464.359,427.15)" xml:space="preserve" fill="black" font-family="Arial" font-size="11" font-weight="400" x="0" y="0">   </text>
			<text id="dp_text067" transform="matrix(1,4.66966e-016,-4.66966e-016,1,436.889,434.433)" xml:space="preserve" fill="black" font-family="Arial" font-size="11" font-weight="400" font-style="italic" x="0" y="0">t </text>
			<text id="dp_text068" transform="matrix(1,4.66966e-016,-4.66966e-016,1,407.789,434.433)" xml:space="preserve" fill="black" font-family="Arial" font-size="11" font-weight="400" font-style="italic" x="0" y="0">t </text>
			<path id="dp_path564" fill="black" fill-rule="evenodd" d="M 443.849,431.199 L 449.729,431.199 L 449.729,431.745 L 443.849,431.745 Z "/>
			<path id="dp_path568" fill="black" fill-rule="evenodd" d="M 417.339,429.477 L 423.389,429.477 L 423.389,429.936 L 417.339,429.936 Z M 417.339,431.304 L 423.389,431.304 L 423.389,431.764 L 417.339,431.764 Z "/>
			<path id="dp_path032" fill="black" fill-rule="evenodd" d="M 432.529,434.549 L 432.529,437.616 C 432.529,438.796 432.679,439.945 432.999,441.063 C 433.309,442.179 433.78,443.16 434.409,444.005 C 434.949,444.733 435.66,445.399 436.519,446 L 436.399,446.115 C 435.5,445.737 434.7,445.119 433.999,444.256 C 433.3,443.395 432.789,442.349 432.46,441.119 C 432.14,439.891 431.98,438.685 431.98,437.504 L 431.98,434.549 L 431.98,428.535 L 431.98,425.585 L 431.98,424.324 L 432.039,424.324 C 432.1,423.605 432.22,422.896 432.399,422.195 C 432.639,421.241 432.98,420.403 433.409,419.683 C 433.849,418.96 434.36,418.353 434.94,417.861 C 435.36,417.497 435.849,417.201 436.399,416.969 L 436.519,417.084 C 435.469,417.808 434.639,418.66 434.02,419.635 C 433.529,420.417 433.159,421.353 432.9,422.445 C 432.649,423.536 432.529,424.545 432.529,425.472 L 432.529,428.535 Z "/>
			<path id="dp_path032" fill="black" fill-rule="evenodd" d="M 470.971,434.549 L 470.971,437.616 C 470.971,438.796 470.821,439.945 470.501,441.063 C 470.191,442.179 469.72,443.16 469.091,444.005 C 468.551,444.733 467.84,445.399 466.981,446 L 467.101,446.115 C 468,445.737 468.8,445.119 469.501,444.256 C 470.2,443.395 470.711,442.349 471.04,441.119 C 471.36,439.891 471.52,438.685 471.52,437.504 L 471.52,434.549 L 471.52,428.535 L 471.52,425.585 L 471.52,424.324 L 471.461,424.324 C 471.4,423.605 471.28,422.896 471.101,422.195 C 470.861,421.241 470.52,420.403 470.091,419.683 C 469.651,418.96 469.14,418.353 468.56,417.861 C 468.14,417.497 467.651,417.201 467.101,416.969 L 466.981,417.084 C 468.031,417.808 468.861,418.66 469.48,419.635 C 469.971,420.417 470.341,421.353 470.6,422.445 C 470.851,423.536 470.971,424.545 470.971,425.472 L 470.971,428.535 Z "/>
			<path id="dp_path567" fill="black" fill-rule="evenodd" d="M 430.445,429.176 L 431.395,429.176 C 431.304,429.311 430.885,429.951 430.115,431.095 C 429.795,431.572 429.565,431.936 429.415,432.183 C 429.355,432.284 429.285,432.393 429.205,432.513 L 428.304,433.892 C 428.285,434.132 428.265,434.353 428.235,434.555 C 428.215,434.756 428.184,434.939 428.155,435.104 C 428.064,435.612 427.955,436.004 427.824,436.281 C 427.735,436.476 427.645,436.609 427.545,436.683 C 427.445,436.755 427.344,436.791 427.244,436.791 C 427.115,436.791 427.015,436.739 426.944,436.633 C 426.864,436.529 426.845,436.395 426.875,436.231 C 426.925,435.943 427.045,435.612 427.235,435.235 C 427.415,434.86 427.664,434.439 427.984,433.971 C 428.064,432.055 428.064,430.897 427.965,430.5 C 427.885,430.103 427.695,429.903 427.405,429.903 C 427.235,429.903 427.085,429.957 426.965,430.065 C 426.845,430.172 426.724,430.416 426.595,430.793 L 426.375,430.793 C 426.395,430.681 426.405,430.597 426.415,430.54 C 426.515,430.024 426.685,429.635 426.935,429.372 C 427.125,429.179 427.344,429.081 427.605,429.081 C 427.835,429.081 427.995,429.148 428.115,429.283 C 428.275,429.473 428.375,429.888 428.405,430.528 C 428.455,431.359 428.435,432.261 428.365,433.237 L 429.155,431.572 C 429.515,430.824 429.944,430.025 430.445,429.176 Z "/>
		</g>
		<text id="dp_text069" transform="matrix(1,4.66966e-016,-4.66966e-016,1,487.404,432.921)" xml:space="preserve" fill="black" font-family="Arial" font-size="11" font-weight="400" font-style="italic" x="0" y="0">y' = y </text>
		<text id="dp_text070" transform="matrix(1,4.66966e-016,-4.66966e-016,1,487.404,461.124)" xml:space="preserve" fill="black" font-family="Arial" font-size="11" font-weight="400" font-style="italic" x="0" y="0">z' = z </text>
		<g id="dp_group155">
			<g id="dp_group156">
				<path id="dp_path157" fill="black" fill-rule="evenodd" d="M 355.039,484.936 L 356.365,486.433 L 359.017,489.427 L 363.187,479.053 L 352.387,481.943 Z "/>
				<path id="dp_path158" fill="black" d="M 238.631,590.719 L 356.365,486.433 L 355.04,484.937 L 237.305,589.223 Z "/>
			</g>
		</g>
		<g id="dp_group159">
			<g id="dp_group160">
				<path id="dp_path161" fill="#cf0606" fill-rule="evenodd" d="M 368.331,487.689 L 369.939,486.5 L 373.153,484.121 L 363.187,479.056 L 365.115,490.068 Z "/>
				<path id="dp_path162" fill="#cf0606" d="M 446.223,589.639 L 369.939,486.5 L 368.331,487.689 L 444.615,590.828 Z "/>
			</g>
		</g>
		<path id="dp_path163" fill="none" fill-rule="evenodd" stroke="black" stroke-width="0.666667" stroke-dasharray="2.4,1.6,2.4,1.6" d="M 306.821,590.232 L 363.188,568.475"/>
		<path id="dp_path164" fill="none" fill-rule="evenodd" stroke="black" stroke-width="0.666667" stroke-dasharray="2.4,1.6,2.4,1.6" d="M 292.909,568.472 L 363.191,568.472"/>
		<path id="dp_path165" fill="none" fill-rule="evenodd" stroke="black" stroke-width="0.666667" stroke-dasharray="2.4,1.6,2.4,1.6" d="M 363.189,568.473 L 363.189,479.055"/>
		<g id="dp_group166">
			<path id="dp_path167" fill="#fefeff" fill-rule="evenodd" stroke="#cf0606" stroke-width="0.933333" d="M 498.628,515.624 C 508.053,515.624 515.693,523.264 515.693,532.689 C 515.693,542.115 508.053,549.755 498.628,549.755 C 489.203,549.755 481.563,542.115 481.563,532.689 C 481.563,523.264 489.203,515.624 498.628,515.624 Z "/>
			<g id="dp_group168">
				<g id="dp_group169">
					<path id="dp_path170" fill="#cf0606" fill-rule="evenodd" d="M 504.659,527.153 L 505.249,527.876 L 506.432,529.32 L 508.567,524.56 L 503.477,525.708 Z "/>
					<path id="dp_path171" fill="#cf0606" fill-rule="evenodd" d="M 498.16,523.745 L 499.093,523.745 L 500.96,523.745 L 498.627,519.079 L 496.293,523.745 Z "/>
					<path id="dp_path172" fill="#cf0606" d="M 504.659,527.153 L 499.093,531.707 L 499.093,523.745 L 498.16,523.745 L 498.16,533.675 L 505.251,527.876 Z "/>
				</g>
			</g>
		</g>
		<text id="dp_text071" transform="matrix(1,9.48894e-016,-9.48894e-016,1,515.989,521.759)" xml:space="preserve" fill="#cf0606" font-family="Arial" font-size="15" font-weight="400" font-style="italic" x="0" y="0">t'</text>
		<text id="dp_text072" transform="matrix(1,9.48894e-016,-9.48894e-016,1,515.989,521.759)" xml:space="preserve" fill="#cf0606" font-family="Arial" font-size="15" font-weight="400" font-style="italic" x="7.04" y="0"> </text>
		<g id="dp_group175">
			<path id="dp_path176" fill="#fefeff" fill-rule="evenodd" stroke="black" stroke-width="0.933333" d="M 180.328,548.069 C 189.753,548.069 197.393,555.709 197.393,565.135 C 197.393,574.56 189.753,582.2 180.328,582.2 C 170.903,582.2 163.263,574.56 163.263,565.135 C 163.263,555.709 170.903,548.069 180.328,548.069 Z "/>
			<g id="dp_group177">
				<g id="dp_group178">
					<path id="dp_path179" fill="black" fill-rule="evenodd" d="M 187.824,570.109 L 187.269,570.859 L 186.159,572.359 L 191.297,573.261 L 188.936,568.608 Z "/>
					<path id="dp_path180" fill="black" fill-rule="evenodd" d="M 179.861,556.191 L 180.795,556.191 L 182.661,556.191 L 180.328,551.524 L 177.995,556.191 Z "/>
					<path id="dp_path181" fill="black" d="M 187.824,570.109 L 180.793,564.901 L 180.795,556.191 L 179.861,556.191 L 179.863,565.371 L 187.269,570.859 Z "/>
				</g>
			</g>
		</g>
		<text id="dp_text073" transform="matrix(1,9.48894e-016,-9.48894e-016,1,196.373,584.283)" xml:space="preserve" fill="black" font-family="Arial" font-size="15" font-weight="400" font-style="italic" x="0" y="0">t </text>
		<g id="dp_group183">
			<path id="dp_path184" fill="white" fill-rule="evenodd" stroke="black" stroke-width="0.666667" d="M 219.581,555.351 L 225.277,555.351 L 225.277,557.643 L 219.581,557.643 Z "/>
			<path id="dp_path185" fill="black" fill-rule="evenodd" d="M 225.277,557.644 L 237.981,563.841 L 237.981,568.511 L 227.361,563.331 L 227.361,574.847 L 234.496,590.781 L 227.78,590.781 L 222.429,578.829 L 217.079,590.781 L 210.364,590.781 L 217.496,574.848 L 217.496,563.331 L 206.876,568.511 L 206.876,563.841 L 219.583,557.644 Z "/>
			<path id="dp_path186" fill="#f56a00" fill-rule="evenodd" stroke="black" stroke-width="0.666667" d="M 225.277,557.643 L 237.983,563.841 L 237.983,568.511 L 227.363,563.331 L 227.363,574.847 L 217.496,574.848 L 217.496,563.331 L 206.876,568.511 L 206.876,563.841 L 219.583,557.643 Z "/>
			<path id="dp_path187" fill="white" fill-rule="evenodd" stroke="black" stroke-width="0.666667" d="M 222.429,536.119 C 227.913,536.119 232.359,540.564 232.359,546.048 C 232.359,551.532 227.913,555.977 222.429,555.977 C 216.945,555.977 212.5,551.532 212.5,546.048 C 212.5,540.564 216.945,536.119 222.429,536.119 Z "/>
			<path id="dp_path188" fill="black" fill-rule="evenodd" d="M 216.489,547.557 L 217.289,547.557 C 217.923,550.339 219.636,551.732 222.428,551.732 C 225.22,551.732 226.935,550.339 227.568,547.557 L 228.367,547.557 C 228.168,549.36 227.541,550.772 226.487,551.795 C 225.435,552.819 224.079,553.329 222.421,553.329 C 220.765,553.329 219.412,552.819 218.364,551.795 C 217.315,550.772 216.689,549.36 216.489,547.557 Z M 225.643,545.757 C 225.204,545.757 224.825,545.601 224.512,545.289 C 224.196,544.979 224.037,544.601 224.037,544.159 C 224.037,543.717 224.196,543.34 224.512,543.029 C 224.825,542.717 225.204,542.561 225.643,542.561 C 226.083,542.561 226.457,542.717 226.768,543.029 C 227.079,543.34 227.235,543.717 227.235,544.159 C 227.235,544.601 227.079,544.979 226.768,545.289 C 226.457,545.601 226.083,545.757 225.643,545.757 Z M 219.213,545.757 C 218.775,545.757 218.399,545.601 218.088,545.289 C 217.779,544.979 217.623,544.601 217.623,544.159 C 217.623,543.717 217.779,543.34 218.088,543.029 C 218.399,542.717 218.775,542.561 219.213,542.561 C 219.663,542.561 220.041,542.717 220.352,543.029 C 220.663,543.34 220.819,543.717 220.819,544.159 C 220.819,544.601 220.661,544.979 220.345,545.289 C 220.032,545.601 219.653,545.757 219.213,545.757 Z "/>
			<path id="dp_path189" fill="black" fill-rule="evenodd" stroke="none" stroke-width="0.666667" d="M 233.127,533.565 C 232.197,533.776 231.708,534.157 231.007,533.995 C 231.745,534.292 233.281,536.627 233.939,537.869 C 235.569,540.949 235.532,545.764 233.939,550.335 C 233.815,548.497 233.951,548.133 233.771,546.148 C 232.789,550.281 231.869,551.94 231.007,554.912 C 231.569,550.128 230.972,543.408 230.805,540.869 C 230.489,541.449 230.005,543.295 229.68,543.952 C 229.292,542.871 228.753,541.34 227.827,539.336 C 227.485,539.753 225.832,540.496 225.411,541.167 C 225.052,540.588 224.436,538.768 224.321,537.513 C 224.136,538.092 222.46,540.655 222.163,541.189 C 221.973,540.883 221.201,539.191 220.807,537.331 C 219.867,538.433 219.465,539.595 218.783,540.892 C 218.343,540.115 216.852,538.447 216.617,538.233 C 215.897,540.011 214.915,542.743 214.401,544.607 C 214.132,543.225 213.992,543.012 213.657,541.693 C 212.903,543.264 212.807,552.809 213.567,556.075 C 211.629,552.353 211.321,549.399 211.177,547.933 C 210.899,549.455 210.932,549.415 211.177,551.848 C 210.535,550.375 209.007,548.276 209.125,545.219 C 209.184,543.741 209.177,542.759 209.619,541.441 C 208.859,542.143 208.881,542.673 208.447,543.151 C 208.439,540.188 210.072,536.252 211.968,534.547 C 213.444,533.22 216.175,531.488 217.835,530.865 C 220.201,529.979 225.353,529.823 227.827,531.536 C 229.809,532.911 231.704,533.679 233.127,533.565 Z "/>
		</g>
		<g id="dp_group190">
			<path id="dp_path191" fill="white" fill-rule="evenodd" stroke="black" stroke-width="0.666667" d="M 458.361,554.879 L 462.552,554.879 L 462.552,557.171 L 458.361,557.171 Z "/>
			<path id="dp_path192" fill="white" fill-rule="evenodd" stroke="black" stroke-width="0.666667" d="M 460.403,535.647 C 465.887,535.647 470.332,540.092 470.332,545.576 C 470.332,551.06 465.887,555.505 460.403,555.505 C 454.919,555.505 450.473,551.06 450.473,545.576 C 450.473,540.092 454.919,535.647 460.403,535.647 Z "/>
			<path id="dp_path193" fill="black" fill-rule="evenodd" d="M 462.552,557.209 L 476.089,563.82 L 476.089,567.799 L 465.468,562.617 L 463.452,566.76 L 474.619,584.711 L 465.873,584.711 L 465.873,590.76 L 461.408,590.76 L 461.408,584.711 L 459.661,584.711 L 459.661,590.76 L 455.199,590.76 L 455.199,584.711 L 446.453,584.711 L 457.619,566.76 L 455.603,562.617 L 444.983,567.799 L 444.983,563.82 L 458.519,557.039 Z "/>
			<path id="dp_path194" fill="#f56a00" fill-rule="evenodd" stroke="black" stroke-width="0.666667" d="M 462.552,557.208 L 476.088,563.82 L 476.088,567.799 L 465.469,562.619 L 463.452,566.76 L 474.619,584.709 L 446.453,584.709 L 457.62,566.761 L 455.603,562.619 L 444.983,567.799 L 444.983,563.82 L 458.519,557.039 Z "/>
			<path id="dp_path195" fill="black" fill-rule="evenodd" stroke="none" stroke-width="0.666667" d="M 451.884,532.283 C 452.824,532.053 453.255,532.592 454.128,532.42 C 452.771,532.849 450.412,535.283 450.013,535.652 C 444.989,540.283 447.133,546.228 446.245,548.741 C 448.741,545.139 448.144,546.193 449.187,544.513 C 448.007,547.625 448.585,548.723 448.839,549.976 C 449.128,551.411 450.763,553.201 451.151,554.173 C 451.521,555.105 449.984,556.524 449.005,558.607 C 447.447,561.925 450.989,564.829 451.617,566.855 C 451.945,565.688 450.589,561.957 451.141,560.736 C 451.04,562.797 451.976,562.825 452.569,564.099 C 452.497,562.108 455.603,559.148 454.464,556.532 C 453.271,553.793 451.645,552.621 453.239,549.328 C 453.961,547.836 453.276,545.416 453.613,543.817 C 454.072,541.636 453.864,540.792 453.54,539.713 C 454.647,540.271 455.115,540.859 456.061,542.113 C 456.48,540.875 457.005,539.84 457.957,538.249 C 458.601,539.647 459.633,540.161 460.483,541.807 C 461.201,540.587 462.117,538.661 462.816,537.983 C 462.991,538.988 463.443,540.355 463.983,541.273 C 464.291,540.199 464.959,539.363 465.372,538.623 C 465.6,539.763 467.056,543.081 467.179,543.351 C 467.325,542.7 467.961,540.98 468.279,540.433 C 467.907,542.413 468.889,543.949 468.065,546.911 C 467.329,549.551 465.905,549.635 468.065,553.428 C 469.255,555.517 466.367,557.913 467.179,560.189 C 467.877,562.149 469.469,564.031 468.813,566.777 C 470.62,563.397 469.585,556.363 471.405,561.2 C 471.595,558.748 472.343,557.392 471.405,556.216 C 470.316,554.848 470.24,553.844 470.965,552.376 S 471.871,549.612 472.005,548.28 C 472.544,549.775 472.493,549.459 473.192,551.017 C 473.545,548.213 475.141,544.129 473.965,540.445 C 473.497,538.983 473.056,536.732 471.735,535.824 C 471.233,535.48 472.456,535.483 473.019,535.203 C 471.039,534.959 466.537,531.369 464.991,530.805 C 464.255,530.536 463.464,530.359 462.643,530.263 C 458.889,529.824 454.365,531.951 451.884,532.283 Z "/>
			<path id="dp_path196" fill="black" fill-rule="evenodd" d="M 454.464,547.536 L 455.263,547.536 C 455.896,550.317 457.609,551.711 460.401,551.711 C 463.195,551.711 464.908,550.317 465.541,547.536 L 466.341,547.536 C 466.141,549.339 465.515,550.751 464.46,551.773 C 463.408,552.797 462.052,553.308 460.396,553.308 C 458.739,553.308 457.385,552.797 456.337,551.773 C 455.288,550.751 454.664,549.339 454.464,547.536 Z M 463.616,545.736 C 463.177,545.736 462.799,545.58 462.485,545.268 C 462.169,544.957 462.011,544.58 462.011,544.139 C 462.011,543.696 462.169,543.319 462.485,543.009 C 462.799,542.696 463.177,542.54 463.616,542.54 C 464.056,542.54 464.432,542.696 464.741,543.009 C 465.052,543.319 465.208,543.696 465.208,544.139 C 465.208,544.58 465.052,544.957 464.741,545.268 C 464.432,545.58 464.056,545.736 463.616,545.736 Z M 457.187,545.736 C 456.748,545.736 456.373,545.58 456.061,545.268 C 455.752,544.957 455.596,544.58 455.596,544.139 C 455.596,543.696 455.752,543.319 456.061,543.009 C 456.373,542.696 456.748,542.54 457.187,542.54 C 457.636,542.54 458.015,542.696 458.327,543.009 C 458.636,543.319 458.792,543.696 458.792,544.139 C 458.792,544.58 458.635,544.957 458.319,545.268 C 458.005,545.58 457.627,545.736 457.187,545.736 Z "/>
		</g>
		<g id="dp_group197">
			<path id="dp_path198" fill="white" fill-rule="evenodd" stroke="black" stroke-width="0.666667" d="M 220.981,763.751 L 226.677,763.751 L 226.677,766.043 L 220.981,766.043 Z "/>
			<path id="dp_path199" fill="black" fill-rule="evenodd" d="M 226.677,766.044 L 239.381,772.241 L 239.381,776.911 L 228.761,771.731 L 228.761,783.247 L 235.896,799.181 L 229.18,799.181 L 223.829,787.229 L 218.479,799.181 L 211.764,799.181 L 218.896,783.248 L 218.896,771.731 L 208.276,776.911 L 208.276,772.241 L 220.983,766.044 Z "/>
			<path id="dp_path200" fill="#f56a00" fill-rule="evenodd" stroke="black" stroke-width="0.666667" d="M 226.677,766.043 L 239.383,772.241 L 239.383,776.911 L 228.763,771.731 L 228.763,783.247 L 218.896,783.248 L 218.896,771.731 L 208.276,776.911 L 208.276,772.241 L 220.983,766.043 Z "/>
			<path id="dp_path201" fill="white" fill-rule="evenodd" stroke="black" stroke-width="0.666667" d="M 223.829,744.519 C 229.313,744.519 233.759,748.964 233.759,754.448 C 233.759,759.932 229.313,764.377 223.829,764.377 C 218.345,764.377 213.9,759.932 213.9,754.448 C 213.9,748.964 218.345,744.519 223.829,744.519 Z "/>
			<path id="dp_path202" fill="black" fill-rule="evenodd" d="M 217.889,755.957 L 218.689,755.957 C 219.323,758.739 221.036,760.132 223.828,760.132 C 226.62,760.132 228.335,758.739 228.968,755.957 L 229.767,755.957 C 229.568,757.76 228.941,759.172 227.887,760.195 C 226.835,761.219 225.479,761.729 223.821,761.729 C 222.165,761.729 220.812,761.219 219.764,760.195 C 218.715,759.172 218.089,757.76 217.889,755.957 Z M 227.043,754.157 C 226.604,754.157 226.225,754.001 225.912,753.689 C 225.596,753.379 225.437,753.001 225.437,752.559 C 225.437,752.117 225.596,751.74 225.912,751.429 C 226.225,751.117 226.604,750.961 227.043,750.961 C 227.483,750.961 227.857,751.117 228.168,751.429 C 228.479,751.74 228.635,752.117 228.635,752.559 C 228.635,753.001 228.479,753.379 228.168,753.689 C 227.857,754.001 227.483,754.157 227.043,754.157 Z M 220.613,754.157 C 220.175,754.157 219.799,754.001 219.488,753.689 C 219.179,753.379 219.023,753.001 219.023,752.559 C 219.023,752.117 219.179,751.74 219.488,751.429 C 219.799,751.117 220.175,750.961 220.613,750.961 C 221.063,750.961 221.441,751.117 221.752,751.429 C 222.063,751.74 222.219,752.117 222.219,752.559 C 222.219,753.001 222.061,753.379 221.745,753.689 C 221.432,754.001 221.053,754.157 220.613,754.157 Z "/>
			<path id="dp_path203" fill="black" fill-rule="evenodd" stroke="none" stroke-width="0.666667" d="M 234.527,741.965 C 233.597,742.176 233.108,742.557 232.407,742.395 C 233.145,742.692 234.681,745.027 235.339,746.269 C 236.969,749.349 236.932,754.164 235.339,758.735 C 235.215,756.897 235.351,756.533 235.171,754.548 C 234.189,758.681 233.269,760.34 232.407,763.312 C 232.969,758.528 232.372,751.808 232.205,749.269 C 231.889,749.849 231.405,751.695 231.08,752.352 C 230.692,751.271 230.153,749.74 229.227,747.736 C 228.885,748.153 227.232,748.896 226.811,749.567 C 226.452,748.988 225.836,747.168 225.721,745.913 C 225.536,746.492 223.86,749.055 223.563,749.589 C 223.373,749.283 222.601,747.591 222.207,745.731 C 221.267,746.833 220.865,747.995 220.183,749.292 C 219.743,748.515 218.252,746.847 218.017,746.633 C 217.297,748.411 216.315,751.143 215.801,753.007 C 215.532,751.625 215.392,751.412 215.057,750.093 C 214.303,751.664 214.207,761.209 214.967,764.475 C 213.029,760.753 212.721,757.799 212.577,756.333 C 212.299,757.855 212.332,757.815 212.577,760.248 C 211.935,758.775 210.407,756.676 210.525,753.619 C 210.584,752.141 210.577,751.159 211.019,749.841 C 210.259,750.543 210.281,751.073 209.847,751.551 C 209.839,748.588 211.472,744.652 213.368,742.947 C 214.844,741.62 217.575,739.888 219.235,739.265 C 221.601,738.379 226.753,738.223 229.227,739.936 C 231.209,741.311 233.104,742.079 234.527,741.965 Z "/>
		</g>
		<g id="dp_group204">
			<path id="dp_path205" fill="white" fill-rule="evenodd" stroke="black" stroke-width="0.666667" d="M 459.927,763.3 L 464.117,763.3 L 464.117,765.592 L 459.927,765.592 Z "/>
			<path id="dp_path206" fill="white" fill-rule="evenodd" stroke="black" stroke-width="0.666667" d="M 461.968,744.068 C 467.452,744.068 471.897,748.513 471.897,753.997 C 471.897,759.481 467.452,763.927 461.968,763.927 C 456.484,763.927 452.039,759.481 452.039,753.997 C 452.039,748.513 456.484,744.068 461.968,744.068 Z "/>
			<path id="dp_path207" fill="black" fill-rule="evenodd" d="M 464.117,765.631 L 477.655,772.241 L 477.655,776.22 L 467.033,771.039 L 465.017,775.181 L 476.184,793.132 L 467.439,793.132 L 467.439,799.181 L 462.973,799.181 L 462.973,793.132 L 461.227,793.132 L 461.227,799.181 L 456.764,799.181 L 456.764,793.132 L 448.019,793.132 L 459.184,775.181 L 457.168,771.039 L 446.548,776.22 L 446.548,772.241 L 460.084,765.46 Z "/>
			<path id="dp_path208" fill="#f56a00" fill-rule="evenodd" stroke="black" stroke-width="0.666667" d="M 464.117,765.629 L 477.653,772.241 L 477.653,776.22 L 467.035,771.04 L 465.017,775.181 L 476.184,793.131 L 448.019,793.131 L 459.185,775.183 L 457.168,771.04 L 446.548,776.22 L 446.548,772.241 L 460.084,765.46 Z "/>
			<path id="dp_path209" fill="black" fill-rule="evenodd" stroke="none" stroke-width="0.666667" d="M 453.449,740.704 C 454.389,740.475 454.82,741.013 455.693,740.841 C 454.336,741.271 451.977,743.704 451.579,744.073 C 446.555,748.704 448.699,754.649 447.811,757.163 C 450.307,753.56 449.709,754.615 450.752,752.935 C 449.572,756.047 450.151,757.144 450.404,758.397 C 450.693,759.832 452.328,761.623 452.716,762.595 C 453.087,763.527 451.549,764.945 450.571,767.028 C 449.012,770.347 452.555,773.251 453.183,775.276 C 453.511,774.109 452.155,770.379 452.707,769.157 C 452.605,771.219 453.541,771.247 454.135,772.52 C 454.063,770.529 457.168,767.569 456.029,764.953 C 454.836,762.215 453.211,761.043 454.804,757.749 C 455.527,756.257 454.841,753.837 455.179,752.239 C 455.637,750.057 455.429,749.213 455.105,748.135 C 456.212,748.692 456.68,749.28 457.627,750.535 C 458.045,749.296 458.571,748.261 459.523,746.671 C 460.167,748.068 461.199,748.583 462.048,750.228 C 462.767,749.008 463.683,747.083 464.381,746.404 C 464.556,747.409 465.008,748.776 465.548,749.695 C 465.856,748.62 466.524,747.784 466.937,747.044 C 467.165,748.184 468.621,751.503 468.744,751.772 C 468.891,751.121 469.527,749.401 469.844,748.855 C 469.472,750.835 470.455,752.371 469.631,755.332 C 468.895,757.972 467.471,758.056 469.631,761.849 C 470.82,763.939 467.932,766.335 468.744,768.611 C 469.443,770.571 471.035,772.452 470.379,775.199 C 472.185,771.819 471.151,764.784 472.971,769.621 C 473.16,767.169 473.908,765.813 472.971,764.637 C 471.881,763.269 471.805,762.265 472.531,760.797 S 473.436,758.033 473.571,756.701 C 474.109,758.196 474.059,757.88 474.757,759.439 C 475.111,756.635 476.707,752.551 475.531,748.867 C 475.063,747.404 474.621,745.153 473.3,744.245 C 472.799,743.901 474.021,743.904 474.584,743.624 C 472.604,743.38 468.103,739.791 466.556,739.227 C 465.82,738.957 465.029,738.78 464.208,738.684 C 460.455,738.245 455.931,740.372 453.449,740.704 Z "/>
			<path id="dp_path210" fill="black" fill-rule="evenodd" d="M 456.029,755.957 L 456.828,755.957 C 457.461,758.739 459.175,760.132 461.967,760.132 C 464.76,760.132 466.473,758.739 467.107,755.957 L 467.907,755.957 C 467.707,757.76 467.08,759.172 466.025,760.195 C 464.973,761.219 463.617,761.729 461.961,761.729 C 460.304,761.729 458.951,761.219 457.903,760.195 C 456.853,759.172 456.229,757.76 456.029,755.957 Z M 465.181,754.157 C 464.743,754.157 464.364,754.001 464.051,753.689 C 463.735,753.379 463.576,753.001 463.576,752.56 C 463.576,752.117 463.735,751.74 464.051,751.431 C 464.364,751.117 464.743,750.961 465.181,750.961 C 465.621,750.961 465.997,751.117 466.307,751.431 C 466.617,751.74 466.773,752.117 466.773,752.56 C 466.773,753.001 466.617,753.379 466.307,753.689 C 465.997,754.001 465.621,754.157 465.181,754.157 Z M 458.752,754.157 C 458.313,754.157 457.939,754.001 457.627,753.689 C 457.317,753.379 457.161,753.001 457.161,752.56 C 457.161,752.117 457.317,751.74 457.627,751.431 C 457.939,751.117 458.313,750.961 458.752,750.961 C 459.201,750.961 459.58,751.117 459.892,751.431 C 460.201,751.74 460.357,752.117 460.357,752.56 C 460.357,753.001 460.2,753.379 459.884,753.689 C 459.571,754.001 459.192,754.157 458.752,754.157 Z "/>
		</g>
		<text id="dp_text074" transform="matrix(1,1.41586e-015,-1.41586e-015,1,548.724,603.251)" xml:space="preserve" fill="#cf0606" font-family="Arial" font-size="15" font-weight="400" font-style="italic" x="0" y="0">x' </text>
		<text id="dp_text075" transform="matrix(1,4.66966e-016,-4.66966e-016,1,469.726,675.338)" xml:space="preserve" fill="black" font-family="Arial" font-size="12" font-weight="400" x="0" y="0">(</text>
		<text id="dp_text076" transform="matrix(1,4.66966e-016,-4.66966e-016,1,469.726,675.338)" xml:space="preserve" fill="black" font-family="Arial" font-size="12" font-weight="400" font-style="italic" x="4" y="0">t'</text>
		<text id="dp_text077" transform="matrix(1,4.66966e-016,-4.66966e-016,1,469.726,675.338)" xml:space="preserve" fill="black" font-family="Arial" font-size="12" font-weight="400" font-style="italic" x="9.632" y="0">, x', </text>
		<text id="dp_text078" transform="matrix(1,4.66966e-016,-4.66966e-016,1,469.726,675.338)" xml:space="preserve" fill="black" font-family="Arial" font-size="12" font-weight="400" font-style="italic" x="31.264" y="0">y'</text>
		<text id="dp_text079" transform="matrix(1,4.66966e-016,-4.66966e-016,1,469.726,675.338)" xml:space="preserve" fill="black" font-family="Arial" font-size="12" font-weight="400" font-style="italic" x="39.584" y="0">, </text>
		<text id="dp_text080" transform="matrix(1,4.66966e-016,-4.66966e-016,1,469.726,675.338)" xml:space="preserve" fill="black" font-family="Arial" font-size="12" font-weight="400" font-style="italic" x="46.24" y="0">z'</text>
		<text id="dp_text081" transform="matrix(1,4.66966e-016,-4.66966e-016,1,469.726,675.338)" xml:space="preserve" fill="black" font-family="Arial" font-size="12" font-weight="400" font-style="italic" x="54.56" y="0"> </text>
		<text id="dp_text082" transform="matrix(1,4.66966e-016,-4.66966e-016,1,469.726,675.338)" xml:space="preserve" fill="black" font-family="Arial" font-size="12" font-weight="400" x="57.888" y="0">)</text>
		<text id="dp_text083" transform="matrix(1,4.66966e-016,-4.66966e-016,1,469.726,675.338)" xml:space="preserve" fill="black" font-family="Arial" font-size="12" font-weight="400" font-style="italic" x="61.888" y="0"> </text>
	</g>
</svg>